<svg xmlns="http://www.w3.org/2000/svg"  viewBox="0 0 48 48" width="480px" height="480px"><path fill="#ed2224" d="M21.413,47.315c1.685,0.076,3.206-0.076,4.891,0c-0.383-4.097,0.719-8.451,0.297-12.544 c-0.118-1.142,0.076-2.779,0.171-3.924c0.102-1.229,1.069-3.553,1.533-4.696c3.541-8.731,5.77-15.742,8.924-24.62 c-1.548-0.029-3.702,0.029-5.25,0c-2.934,7.419-5.846,15.183-8.022,22.859c-3.659-6.121-5.157-12.182-7.055-18.386 c-0.13-0.424-0.284-0.885-0.66-1.12c-0.247-0.154-0.549-0.183-0.839-0.205c-1.56-0.118-3.126-0.149-4.689-0.09 c3.636,7.742,6.793,16.44,9.267,24.628c0.411,1.36,0.806,2.729,1.013,4.134c0.218,1.48,0.447,2.718,0.453,4.213 C21.456,40.451,21.403,44.429,21.413,47.315z"/><path fill="#010101" d="M37.228,1.033c-1.75-0.028-3.5,0.028-5.25,0C31.74,1.029,31.577,1.194,31.496,1.4 c-2.823,7.142-5.525,14.344-7.685,21.717c-2.11-3.802-3.592-7.875-4.862-12.033c-0.335-1.095-0.659-2.193-0.986-3.291 c-0.27-0.904-0.439-2.011-0.95-2.815c-0.522-0.821-1.483-0.798-2.35-0.848c-1.315-0.076-2.633-0.086-3.95-0.041 c-0.401,0.014-0.593,0.409-0.432,0.752c2.538,5.416,4.725,10.992,6.675,16.645c1.884,5.463,3.992,11.069,3.99,16.917 c0,2.97-0.043,5.941-0.034,8.911c0.001,0.199,0.102,0.33,0.234,0.406c0.072,0.051,0.156,0.09,0.266,0.094 c1.631,0.063,3.261-0.063,4.891,0c0.253,0.01,0.523-0.238,0.5-0.5c-0.29-3.347,0.333-6.672,0.39-10.014 c0.026-1.503-0.185-2.988-0.088-4.49c0.082-1.276,0.2-2.483,0.603-3.701c0.908-2.743,2.12-5.396,3.142-8.098 c1.122-2.965,2.185-5.951,3.229-8.944c1.21-3.467,2.4-6.941,3.629-10.402C37.822,1.351,37.533,1.038,37.228,1.033z M30.286,19.685 c-1.051,2.814-2.242,5.576-3.274,8.396c-0.426,1.163-0.695,2.274-0.806,3.505c-0.061,0.682-0.122,1.366-0.138,2.051 c-0.018,0.764,0.083,1.516,0.114,2.278c0.148,3.64-0.621,7.255-0.403,10.893c-1.288-0.021-2.575,0.037-3.862,0.015 c0.012-5.353,0.438-10.808-0.961-16.031c-1.566-5.848-3.647-11.615-5.86-17.245c-1.123-2.857-2.331-5.681-3.617-8.468 c0.98-0.018,1.96-0.013,2.939,0.038c0.445,0.023,1.19-0.067,1.573,0.2c0.355,0.247,0.446,0.872,0.561,1.249 c0.612,2.017,1.195,4.043,1.828,6.053c1.316,4.174,2.906,8.253,5.146,12.025c0.22,0.371,0.796,0.295,0.914-0.119 c2.174-7.647,4.961-15.101,7.878-22.492c1.403,0.014,2.805-0.007,4.208,0C34.444,7.916,32.47,13.838,30.286,19.685z"/></svg>